<svg data-v-423bf9ae="" xmlns="http://www.w3.org/2000/svg" viewBox="0 0 307 90" class="iconLeft"><!----><!----><!----><g data-v-423bf9ae="" id="6b83c694-7eba-4824-a458-4b2ebeefcfc7" fill="#2B1200" transform="matrix(4.573170439180078,0,0,4.573170439180078,174.40075261974172,0.5487803044168515)"><path d="M-0.15 15.86C0.22 16.14 0.70 16.28 1.23 16.28C2.09 16.28 2.80 15.69 3.25 14.60L6.64 6.26L6.02 6.26L3.40 12.87L0.71 6.26L0.10 6.26L3.11 13.55L2.77 14.38C2.42 15.23 1.86 15.69 1.20 15.69C0.80 15.69 0.42 15.58 0.10 15.36ZM7.29 9.90C7.29 12.05 8.82 13.57 10.89 13.57C12.98 13.57 14.49 12.05 14.49 9.90C14.49 7.77 12.98 6.24 10.89 6.24C8.82 6.24 7.29 7.77 7.29 9.90ZM7.87 9.91C7.87 8.08 9.14 6.80 10.89 6.80C12.66 6.80 13.92 8.08 13.92 9.91C13.92 11.75 12.66 13.02 10.89 13.02C9.14 13.02 7.87 11.75 7.87 9.91ZM15.27 6.26L18.03 13.55L18.63 13.55L21.08 7.03L23.51 13.55L24.11 13.55L26.87 6.26L26.25 6.26L23.83 12.92L21.39 6.26L20.76 6.26L18.34 12.92L15.90 6.26ZM28.38 13.55L28.97 13.55L28.97 3.16L28.38 3.16Z"></path></g><defs data-v-423bf9ae=""><linearGradient data-v-423bf9ae="" gradientTransform="rotate(25)" id="be438151-ed05-46aa-8e01-ac74ee15e306" x1="0%" y1="0%" x2="100%" y2="0%"><stop data-v-423bf9ae="" offset="0%" style="stop-color: rgb(121, 35, 0); stop-opacity: 1;"></stop><stop data-v-423bf9ae="" offset="100%" style="stop-color: rgb(243, 112, 0); stop-opacity: 1;"></stop></linearGradient></defs><g data-v-423bf9ae="" id="39b74197-33b1-49aa-8502-54e3b9bcff5d" transform="matrix(4.803586662404586,0,0,4.803586662404586,0.14261340152661717,-31.22538662899096)" stroke="none" fill="url(#be438151-ed05-46aa-8e01-ac74ee15e306)"><path d="M16 19.586l7.496-12.954H8.504zM7.496 12.414L0 25.368h14.992zM24.504 12.414l-7.496 12.954H32z"></path></g><!----></svg>